<svg xmlns="http://www.w3.org/2000/svg" viewBox="0 0 1200 640" font-family="Helvetica Neue, Helvetica, Arial, sans-serif">
  <rect width="1200" height="640" fill="#F7F5F0"/>

  <text x="117" y="130" font-size="12" letter-spacing="2.5" fill="#8a8a90" font-weight="500">BEFORE · UP TO 2 WEEKS</text>
  <g fill="#101012">
    <rect x="117" y="152" width="56" height="56" rx="14"/>
    <rect x="187" y="152" width="56" height="56" rx="14"/>
    <rect x="257" y="152" width="56" height="56" rx="14"/>
    <rect x="327" y="152" width="56" height="56" rx="14"/>
    <rect x="397" y="152" width="56" height="56" rx="14"/>
    <rect x="467" y="152" width="56" height="56" rx="14"/>
    <rect x="537" y="152" width="56" height="56" rx="14"/>
    <rect x="607" y="152" width="56" height="56" rx="14"/>
    <rect x="677" y="152" width="56" height="56" rx="14"/>
    <rect x="747" y="152" width="56" height="56" rx="14"/>
    <rect x="817" y="152" width="56" height="56" rx="14"/>
    <rect x="887" y="152" width="56" height="56" rx="14"/>
    <rect x="957" y="152" width="56" height="56" rx="14"/>
    <rect x="1027" y="152" width="56" height="56" rx="14"/>
  </g>

  <text x="117" y="330" font-size="12" letter-spacing="2.5" fill="#8a8a90" font-weight="500">AFTER · 2 DAYS MAX</text>
  <g>
    <rect x="117" y="352" width="56" height="56" rx="14" fill="#101012"/>
    <rect x="187" y="352" width="56" height="56" rx="14" fill="#101012"/>
    <rect x="257" y="352" width="56" height="56" rx="14" fill="none" stroke="#C9C5BA" stroke-width="1.3" stroke-dasharray="3 5"/>
    <rect x="327" y="352" width="56" height="56" rx="14" fill="none" stroke="#C9C5BA" stroke-width="1.3" stroke-dasharray="3 5"/>
    <rect x="397" y="352" width="56" height="56" rx="14" fill="none" stroke="#C9C5BA" stroke-width="1.3" stroke-dasharray="3 5"/>
    <rect x="467" y="352" width="56" height="56" rx="14" fill="none" stroke="#C9C5BA" stroke-width="1.3" stroke-dasharray="3 5"/>
    <rect x="537" y="352" width="56" height="56" rx="14" fill="none" stroke="#C9C5BA" stroke-width="1.3" stroke-dasharray="3 5"/>
    <rect x="607" y="352" width="56" height="56" rx="14" fill="none" stroke="#C9C5BA" stroke-width="1.3" stroke-dasharray="3 5"/>
    <rect x="677" y="352" width="56" height="56" rx="14" fill="none" stroke="#C9C5BA" stroke-width="1.3" stroke-dasharray="3 5"/>
    <rect x="747" y="352" width="56" height="56" rx="14" fill="none" stroke="#C9C5BA" stroke-width="1.3" stroke-dasharray="3 5"/>
    <rect x="817" y="352" width="56" height="56" rx="14" fill="none" stroke="#C9C5BA" stroke-width="1.3" stroke-dasharray="3 5"/>
    <rect x="887" y="352" width="56" height="56" rx="14" fill="none" stroke="#C9C5BA" stroke-width="1.3" stroke-dasharray="3 5"/>
    <rect x="957" y="352" width="56" height="56" rx="14" fill="none" stroke="#C9C5BA" stroke-width="1.3" stroke-dasharray="3 5"/>
    <rect x="1027" y="352" width="56" height="56" rx="14" fill="none" stroke="#C9C5BA" stroke-width="1.3" stroke-dasharray="3 5"/>
  </g>

  <text x="117" y="530" font-size="13.5" fill="#8a8a90">Fig. 1 – Idea to live test, day by day: twelve days handed back to the team.</text>
</svg>
